<?xml version="1.0" encoding="UTF-8"?>
<svg id="Calque_2" xmlns="http://www.w3.org/2000/svg" version="1.1" viewBox="0 0 4704 1564">
  <!-- Generator: Adobe Illustrator 30.1.0, SVG Export Plug-In . SVG Version: 2.1.1 Build 136)  -->
  <defs>
    <style>
      .st0 {
        fill: #145775;
      }
    </style>
  </defs>
  <path class="st0" d="M2059.1,133.4c-326.4,0-591.1,268.4-591.1,599.6s264.6,599.6,591.1,599.6,591.1-268.4,591.1-599.6-264.6-599.6-591.1-599.6ZM2059.1,1138.1c-203.6,0-368.7-182.4-368.7-407.5s165.1-407.5,368.7-407.5,368.7,182.4,368.7,407.5-165.1,407.5-368.7,407.5Z"/>
  <g>
    <rect class="st0" x="63" y="761.4" width="228.3" height="571"/>
    <polygon class="st0" points="63 133.4 333 133.4 708 959 1071.7 133.4 1340.4 133.4 1340.4 1332.5 1114.6 1332.5 1115.1 577.8 780.3 1332.5 647 1332.5 63 133.4"/>
  </g>
  <polygon class="st0" points="2790.8 133.4 3678.5 133.4 3678.5 343 3054.2 1138.1 3678.5 1138.1 3678.5 1332.5 2790.8 1332.5 2790.8 1123.2 3414.2 326.9 2790.8 328.6 2790.8 133.4"/>
  <g>
    <rect class="st0" x="3820.8" y="133.4" width="820.1" height="194.6"/>
    <rect class="st0" x="3820.8" y="1138.1" width="820.1" height="194.6"/>
    <rect class="st0" x="3820.8" y="612.9" width="708" height="194.6"/>
  </g>
  <rect class="st0" x="63" y="1509.7" width="4577.9" height="39.9"/>
</svg>